<?xml version="1.0" encoding="UTF-8"?>
<svg id="_Слой_2" data-name="Слой 2" xmlns="http://www.w3.org/2000/svg" viewBox="0 0 70.69 61.56">
  <defs>
    <style>
      .cls-1 {
        stroke: #000;
        stroke-miterlimit: 10;
        stroke-width: 1.2px;
      }
    </style>
  </defs>
  <g id="Icons">
    <path class="cls-1" d="M68.64,20.24C66.14,12.9,58.5.6,35.41.6,16.56.6.95,14.42.61,25.86c-.09,3.01.91,9.84,11.54,11.5-.11.67-.17,1.39-.17,2.18,0,4.88,4.96,11.68,13.04,11.68,2.8,0,4.88-.48,6.63-1.21l7.33,10.22c.34.48.85.73,1.35.73.38,0,.77-.14,1.09-.43.74-.68.86-1.9.26-2.74l-6.85-9.55c.57-.39,1.13-.79,1.69-1.2.57-.42,1.15-.84,1.76-1.25l9.61,14.4c.34.51.86.78,1.39.78.36,0,.73-.13,1.04-.39.76-.65.92-1.87.35-2.73l-1.97-2.96c2.24-.02,4.65-.71,6.79-1.88,5.08-2.79,7.6-7.41,6.51-11.69,1.67-.64,3.44-1.87,5.77-4.22,2.37-2.39,3.38-9.51.89-16.85ZM53.95,49.5c-3.34,1.82-7.57,2.24-8.98-.18l-3.57-5.34c1.66-.77,3.65-1.43,6.29-1.87,3.79-.62,6.34-.43,8.39-.29.9.07,1.72.1,2.5.09.01.06,0,.12.03.17.96,2.82-1.65,5.75-4.66,7.4ZM65.44,34.2c-4.1,4.13-5.58,4.02-9.13,3.75-.63-.05-1.32-.09-2.05-.12-.5-1.7-1.31-3.23-2.07-4.67-1.77-3.31-2.7-5.33-1.37-8.33.43-.96.08-2.13-.77-2.61-.86-.48-1.89-.09-2.32.87-2.25,5.06-.17,8.95,1.5,12.07.5.93.92,1.83,1.27,2.72-1,.07-2.07.18-3.29.38-6.54,1.07-9.75,3.43-12.58,5.51-2.7,1.98-4.84,3.55-9.6,3.55-6.19,0-9.57-5.14-9.57-7.79,0-5.45,4.61-5.84,12.21-5.84,5.15,0,10.01,0,12.37-3.29,1.21-1.69,1.54-4,.98-6.86-.18-.91-.89-1.53-1.69-1.53-.12,0-.25.02-.37.05-.94.23-1.53,1.27-1.32,2.32.32,1.65.22,2.86-.3,3.59-1.32,1.84-5.75,1.84-9.67,1.84-4.85,0-11.02,0-13.96,3.84-4.05-.46-9.78-2.1-9.61-7.65.08-2.66,1.49-5.78,3.91-8.8.57,3.65,2.53,6.64,4.83,7.65.56.24,1.18.39,1.82.39,1.8,0,3.77-1.13,5.19-4.29.43-.96.08-2.13-.77-2.61-.86-.48-1.89-.09-2.32.87-.79,1.77-1.67,2.43-2.65,2.02-1.56-.69-3.26-3.97-2.67-7.59,4.3-3.83,10.24-7.07,17.11-8.44-.38,1.37-1.18,3-1.86,4.32-1.36,2.65-2.54,4.94-1.54,6.9.59,1.13,1.72,1.71,3.36,1.71.96,0,1.73-.87,1.73-1.95s-.94-1.86-1.86-1.95c.27-.75.87-1.92,1.3-2.76,1.1-2.15,2.31-4.51,2.52-6.82,1.06-.1,2.14-.15,3.23-.15,21.02,0,27.82,10.74,30,17.14,2.07,6.07,1.11,11.48.03,12.56Z"/>
  </g>
</svg>