<?xml version="1.0" encoding="UTF-8"?>
<svg id="_Слой_2" data-name="Слой 2" xmlns="http://www.w3.org/2000/svg" viewBox="0 0 70.72 70.8">
  <g id="Icons">
    <path d="M43.88,30.37L70.72,3.54l-3.54-3.54-26.85,26.83-1.55-1.55c-1.53-1.53-3.52-2.29-5.52-2.29s-4,.76-5.52,2.29l-1.23,1.23L0,45.36l25.36,25.45,18.84-26.61,1.23-1.23c3.05-3.05,3.05-8,0-11.05l-1.55-1.55ZM24.71,63.07l-3.3-3.31,4.83-4.83-3.54-3.54-4.82,4.82-3.48-3.5,8.61-8.61-3.54-3.54-8.6,8.6-3.16-3.17,18.25-12.97,11.71,11.71-12.96,18.31ZM41.89,39.43l-1.23,1.23-10.61-10.61,1.23-1.23c.53-.53,1.24-.82,1.99-.82s1.46.29,1.99.82l6.63,6.63c1.1,1.1,1.1,2.88,0,3.98Z"/>
  </g>
</svg>