<?xml version="1.0" encoding="UTF-8"?>
<svg id="_Слой_2" data-name="Слой 2" xmlns="http://www.w3.org/2000/svg" viewBox="0 0 70.71 70.71">
  <g id="Icons">
    <g>
      <path d="M35.36,5c16.74,0,30.36,13.62,30.36,30.36s-13.62,30.36-30.36,30.36S5,52.09,5,35.36,18.62,5,35.36,5M35.36,0C15.83,0,0,15.83,0,35.36s15.83,35.36,35.36,35.36,35.36-15.83,35.36-35.36S54.88,0,35.36,0h0Z"/>
      <polygon points="54.8 19.45 51.27 15.91 35.36 31.82 19.45 15.91 15.91 19.45 31.82 35.36 15.91 51.27 19.45 54.8 35.36 38.89 51.27 54.8 54.8 51.27 38.89 35.36 54.8 19.45"/>
    </g>
  </g>
</svg>