<svg xmlns="http://www.w3.org/2000/svg" viewBox="0 -0.00249994 70.74 70.74">
  <path d="M69.07,13.65L57.09,1.67c-2.23-2.23-5.86-2.23-8.09,0L1.07,49.6C.02,50.65,0,52.15,0,52.31v14.82c0,1.99,1.62,3.6,3.6,3.61h14.83c.27,0,1.69-.05,2.71-1.07.49-.49,47.51-47.52,47.92-47.92,1.08-1.08,1.68-2.52,1.68-4.04s-.6-2.96-1.68-4.05ZM49.14,8.73l3.46-3.46c.25-.25.65-.25.89,0l11.98,11.98c.25.25.25.65,0,.9l-3.46,3.46-12.87-12.88ZM7.2,50.67L41.04,16.82l1.64,1.64L8.85,52.31l-1.64-1.64ZM48.67,24.46L14.84,58.3l-2.39-2.39L46.28,22.07l2.39,2.39ZM53.92,29.7L20.08,63.54l-1.64-1.64L52.28,28.06l1.64,1.64ZM44.64,13.22l.89-.89,12.87,12.88-.89.89-12.87-12.88ZM14.99,65.65h-5.04s-4.86-4.86-4.86-4.86v-5.04s9.9,9.9,9.9,9.9Z" fill="#000000"/>
</svg>