<svg xmlns="http://www.w3.org/2000/svg" viewBox="0 -2.38431e-7 70.7 70.69">
  <path d="M35.35 5c.15 0 .29.05.4.16l12.06 11.43H37.59v29.32h-4.48V16.59H22.89L34.95 5.16c.11-.1.24-.16.4-.16m0-5c-1.38 0-2.76.51-3.84 1.53L19.1 13.29c-3.15 2.99-1.04 8.3 3.31 8.3h5.7v24.89c0 2.45 1.98 4.43 4.43 4.43h5.62c2.45 0 4.43-1.98 4.43-4.43V21.59h5.7c4.35 0 6.46-5.31 3.31-8.3L39.18 1.53A5.58 5.58 0 0035.34 0ZM0 20.69h5v50H0zm16.13 25h5v25h-5zm16.72 8.33h5v16.67h-5zm16.71 4.17h5v12.5h-5zm16.14 2.5h5v10h-5z" fill="#000000"/>
</svg>