<?xml version="1.0" encoding="UTF-8"?>
<svg id="_Слой_2" data-name="Слой 2" xmlns="http://www.w3.org/2000/svg" viewBox="0 0 70.71 70.7">
  <g id="Icons">
    <g>
      <path d="M63.7,61.3c-2.28,2.62-6.25,4.4-10.67,4.4H17.68c-4.42,0-8.39-1.78-10.67-4.4h56.7M70.71,56.3H0c0,7.96,7.91,14.4,17.68,14.4h35.36c9.76,0,17.68-6.45,17.68-14.4h0Z"/>
      <path d="M35.36,5c.15,0,.29.05.4.16l12.06,11.43h-10.22v29.32h-4.48v-29.32h-10.22s12.06-11.43,12.06-11.43c.11-.1.24-.16.4-.16M35.36,0c-1.38,0-2.76.51-3.84,1.53l-12.41,11.76c-3.15,2.99-1.04,8.3,3.31,8.3h5.7v24.89c0,2.45,1.98,4.43,4.43,4.43h5.62c2.45,0,4.43-1.98,4.43-4.43v-24.89h5.7c4.35,0,6.46-5.31,3.31-8.3L39.19,1.53c-1.08-1.02-2.46-1.53-3.84-1.53h0Z"/>
    </g>
  </g>
</svg>