<?xml version="1.0" encoding="UTF-8"?>
<svg id="_Слой_2" data-name="Слой 2" xmlns="http://www.w3.org/2000/svg" viewBox="0 0 70.71 70.71">
  <g id="Icons">
    <g>
      <polygon points="70.71 0 35.36 0 51.03 15.68 51.03 70.71 55.03 70.71 55.03 15.68 70.71 0"/>
      <path d="M6.22,21.13c.62,0,1.21.14,1.56.38l20.92,13.85-20.92,13.85c-.35.23-.94.38-1.56.38-.5,0-.92-.08-1.22-.18v-28.09c.31-.1.73-.18,1.22-.18M6.22,16.13c-3.18,0-6.22,1.63-6.22,4.1v30.26c0,2.46,3.05,4.1,6.22,4.1,1.52,0,3.07-.37,4.32-1.21l22.86-15.13c2.41-1.6,2.41-4.19,0-5.78l-22.86-15.13c-1.26-.83-2.81-1.21-4.32-1.21h0Z"/>
    </g>
  </g>
</svg>