<?xml version="1.0" encoding="UTF-8"?>
<svg id="_Слой_2" data-name="Слой 2" xmlns="http://www.w3.org/2000/svg" viewBox="0 0 62.32 71.78">
  <g id="Icons">
    <path d="M62.08,23.37c-.81-3.88-3.54-6.85-7.08-7.81.39-3.63-1.41-7.24-4.75-9.4-3.62-2.34-8.05-2.31-11.3.07-2.01,1.15-3.35,3.67-4.39,6.2-.28-4.41-1.39-7.6-3.35-9.68C29.48.93,27.13,0,24.22,0c-.07,0-.15,0-.22,0-4.37,0-8.51,3.21-9.71,7.39-3.66-.38-7.28,1.41-9.43,4.74-2.32,3.6-2.29,8.02.08,11.29,1.22,2.16,4.12,3.58,6.93,4.7-2.77.06-5.68.38-7.52,1.88C.97,32.19-.65,36.31.24,40.53c.82,3.89,3.54,6.86,7.07,7.8-.39,3.63,1.41,7.24,4.75,9.4,2.97,1.92,6.47,2.21,9.43.96-4.04,5.07-10.27,8.34-17.25,8.34-1.31,0-2.38,1.07-2.38,2.38s1.07,2.37,2.38,2.37c7.15,0,13.88-2.79,18.94-7.86,2.16-2.16,3.9-4.62,5.19-7.29.28,1.09.7,2.07,1.33,2.85,1.78,2.77,4.87,4.35,8.24,4.35.75,0,1.52-.08,2.29-.24,3.89-.82,6.86-3.54,7.8-7.07,3.64.39,7.25-1.41,9.4-4.74,2.33-3.62,2.3-8.05-.07-11.3-1.22-2.17-4.14-3.59-6.96-4.71,2.78-.06,5.71-.38,7.55-1.88,3.38-2.2,5-6.32,4.12-10.51ZM55.11,30.09c-1.15,1.12-7.73,1.03-11.27.98-2.07-.03-3.71-.05-4.6.07-1.4-.12-2.37.89-2.63,1.96-.3,1.21.27,2.35,1.38,2.8l.06.03c.82.46,2.49,1.08,4.6,1.87,3.5,1.3,10.02,3.73,10.71,5.2l.1.17c1.8,2.45.87,5.12-.49,6.66-1.34,1.53-3.83,2.8-6.46,1.42h0c-.62-.4-1.44-.37-2.08.07-.59.41-.89,1.07-.78,1.75v.11c.44,2.97-1.65,4.86-3.57,5.57-1.93.72-4.78.64-6.44-1.95l-.13-.16c-1.12-1.15-1.05-8.05-1.01-11.76.02-2.16.04-3.86-.09-4.75v-.02s0,0,0,0c0-.05,0-.12,0-.2-.01-1.22-.88-2.19-2.14-2.38-.59-.09-1.15.01-1.62.26l-.36.26-.29.25c-.21.24-.41.53-.51.86-.45.83-.98,2.38-1.69,4.32-1.22,3.31-3.5,9.47-4.97,10.18l-.16.1c-2.47,1.84-5.17.88-6.74-.49-1.53-1.35-2.8-3.84-1.32-6.49l.04-.08c.38-.63.35-1.44-.06-2.05-.38-.56-1.02-.83-1.67-.72h-.17c-2.32.35-4.27-.74-5.24-2.88-.94-2.08-.79-5.11,1.65-7.2,1.41-1.2,10.6-1.12,13.62-1.09,1.83.02,2.41.02,2.72-.06.71-.08,1.33-.46,1.72-1.05l.27-.17-.13-.05c.1-.19.19-.41.24-.63.28-1.13-.2-2.24-1.18-2.77l-13.2-5.33c-2.42-1.02-3.08-2.79-3.21-4.1-.21-2.16.9-4.52,2.71-5.73,1.1-.73,2.89-1.35,5.21-.13h.02c.59.39,1.33.37,1.93-.04.64-.44.95-1.2.8-1.88-.21-1.42.31-2.99,1.4-4.2,1.05-1.18,2.44-1.85,3.84-1.86h0s.02,0,.03,0c1.34,0,2.4.4,3.22,1.22,2.52,2.5,2.53,8.61,2.53,13.06,0,1.94,0,3.61.18,4.89v.04c0,.27.04.53.11.77l.03.16h.03c.28.7.89,1.24,1.71,1.43,1.24.3,2.45-.31,2.93-1.44.03-.05.06-.1.08-.15v-.03c.47-.82,1.05-2.39,1.79-4.38,1.21-3.28,3.47-9.38,4.94-10.09l.16-.1c2.43-1.81,5.1-.86,6.64.5,1.69,1.48,2.76,4.08,1.41,6.5-.4.6-.38,1.4.05,2.03.43.63,1.17.93,1.81.8,2.81-.41,4.85,1.53,5.63,3.63.71,1.92.64,4.75-1.93,6.38l-.16.13Z"/>
  </g>
</svg>