<svg xmlns="http://www.w3.org/2000/svg" viewBox="0 0 70.63 71.13"><path d="M57.31 30.98v37.14H3V30.98zm3-3H0v43.14h60.31zm0-12.62c-.32 0-.64-.06-.96-.19L35.31 5.21l-24.04 9.96c-1.28.53-2.74-.08-3.27-1.35-.53-1.28.08-2.74 1.35-3.27L34.36.19c.61-.25 1.3-.25 1.91 0l25 10.36c1.28.53 1.88 1.99 1.35 3.27-.4.96-1.33 1.54-2.31 1.54"/><path d="M10.31 20.58v9.32c.33-.23.69-.42 1.1-.57.64-.24 1.31-.15 1.9.13v-5.89h54.31v37.14h-9.5c.58.95.7 2.13.2 3h12.29V20.58z"/><path d="M10.4 30.11h3v6h-3zm0 12h3v6h-3zm0 12h3v6h-3zm5.42 6.58h6v3h-6zm12 0h6v3h-6zm24 0h6v3h-6zm-12 0h6v3h-6z"/></svg>