<svg xmlns="http://www.w3.org/2000/svg" viewBox="0.0100002 0 71.24 71.78">
  <path d="M36.79 50.06s.09.01.13.01c5.03 0 7.32-7.35 7.32-14.18s-2.29-14.18-7.32-14.18h-.05c-1-2.45-2.27-4.79-3.79-6.98 2.44-4.3 4.2-8.9 5.25-13.66L33.45 0c-.95 4.32-2.55 8.49-4.78 12.39-1.93 3.38-4.3 6.49-7.04 9.23-7.9 7.9-16.94 10.8-21.62 11.83l.53 2.44-.53 2.44c4.68 1.03 13.72 3.92 21.62 11.83s10.8 16.94 11.83 21.62l4.88-1.07c-.87-3.98-2.53-9.13-5.7-14.47.34-.33.67-.66.98-1 1.25-1.41 2.28-3.09 3.18-5.18Zm.7-22.35c3.77 0 3.76 5.85 0 5.85s-3.76-5.85 0-5.85m-5.03 19.76c-.76 1.89-1.59 3.32-2.59 4.45-.02.03-.05.05-.07.08a49 49 0 00-4.64-5.38A48.5 48.5 0 008.95 35.89a48.6 48.6 0 0016.21-10.73c1.8-1.8 3.44-3.76 4.94-5.83a31.3 31.3 0 012.37 4.96c-1.95 2.74-2.87 7.27-2.87 11.6s.92 8.83 2.86 11.58m15.93-14.08h22.86v5H48.39zm0-25h22.86v5H48.39zm0 50h22.86v5H48.39z" fill="#000000"/>
</svg>