<?xml version="1.0" encoding="UTF-8"?>
<svg id="_Слой_2" data-name="Слой 2" xmlns="http://www.w3.org/2000/svg" viewBox="0 0 70.71 70.71">
  <g id="Icons">
    <g>
      <path d="M35.36,5c16.74,0,30.36,13.62,30.36,30.36s-13.62,30.36-30.36,30.36S5,52.09,5,35.36,18.62,5,35.36,5M35.36,0C15.83,0,0,15.83,0,35.36s15.83,35.36,35.36,35.36,35.36-15.83,35.36-35.36S54.88,0,35.36,0h0Z"/>
      <path d="M32.04,46.84c-.61-1.65-.92-3.45-.92-5.4,0-1.71.48-3.31,1.44-4.79.96-1.48,2.79-3.43,5.49-5.84,2.66-2.3,4.46-4.15,5.42-5.55.96-1.39,1.44-2.85,1.44-4.36,0-2.22-.89-3.96-2.67-5.24-1.78-1.27-4.03-1.91-6.73-1.91-4.5,0-8.37,1.58-11.62,4.74v-5.96c4.11-2.28,8.28-3.42,12.54-3.42s7.79,1,10.47,3c2.68,2,4.02,4.71,4.02,8.13,0,2.09-.53,3.99-1.6,5.71-1.07,1.72-2.98,3.78-5.73,6.17-2.73,2.35-4.54,4.15-5.42,5.4-.89,1.25-1.33,2.57-1.33,3.95,0,1.62.45,3.41,1.36,5.37h-6.16ZM31.23,57.83c0-1.01.42-1.9,1.27-2.68.85-.78,1.84-1.17,2.97-1.17s2.09.37,2.95,1.12c.86.75,1.29,1.66,1.29,2.73,0,.94-.4,1.81-1.2,2.58-.8.78-1.75,1.17-2.86,1.17-1.33,0-2.4-.38-3.21-1.15-.81-.77-1.22-1.63-1.22-2.6Z"/>
    </g>
  </g>
</svg>