<svg xmlns="http://www.w3.org/2000/svg" viewBox="-0.005 -0.00499976 70.72 70.71">
  <path d="M69.98 4.26c.98-.98.98-2.56 0-3.53-.97-.98-2.56-.98-3.53 0L51.47 15.71V12.7c-3.94-1.2-8.24-1.86-12.89-1.95V1.81H33.5v9.23c-3.61.55-6.78 1.9-9.5 4.05s-4.82 4.96-6.3 8.42c-1.48 3.47-2.22 7.37-2.22 11.69 0 5.59.85 10.23 2.56 13.93L.73 66.45c-.98.98-.98 2.56 0 3.53.49.49 1.13.73 1.77.73s1.28-.24 1.77-.73l16.54-16.54c3.03 3.51 7.25 5.39 12.69 5.6v8.94h5.08V58.7c2.15-.39 4.29-1.2 6.42-2.44s4.42-3.19 6.86-5.86l-2.78-3.22c-1.79 1.99-3.51 3.43-5.15 4.35-1.64.91-3.43 1.46-5.35 1.66V35.68l31.4-31.4Zm-31.4 10.39c1.63.23 2.96.94 4 2.12 1.04 1.19 1.93 2.9 2.68 5.14l-6.68 6.68V14.64ZM33.5 53.03c-3.1-.7-5.42-2.47-6.99-5.3l6.99-6.99zm0-19.35-8.77 8.77c-.46-2.36-.7-5.13-.7-8.37 0-5.24.83-9.54 2.49-12.89s3.99-5.48 6.98-6.4v18.88Z" fill="#000000"/>
</svg>