<svg xmlns="http://www.w3.org/2000/svg" viewBox="0 0 70.7 70.69">
  <path d="M65.7 70.69h5v-10h-5Zm-16.14 0h5V58.19h-5Zm-16.71 0h5V54.02h-5Zm-16.72 0h5v-25h-5ZM0 70.69H5v-50H0ZM38.15 0c2.45 0 4.43 1.98 4.43 4.43V29.32h5.7c4.35 0 6.46 5.31 3.31 8.3L39.18 49.38c-1.08 1.02-2.46 1.53-3.84 1.53s-2.76-.51-3.84-1.53L19.09 37.62c-3.15-2.99-1.04-8.3 3.31-8.3h5.7V4.43C28.1 1.98 30.08 0 32.53 0h5.62M33.11 5V34.32H22.89L34.95 45.75c.11.11.24.16.4.16s.29-.06.4-.16L47.81 34.32H37.59V5Z" fill="#000000"/>
</svg>