<?xml version="1.0" encoding="UTF-8"?>
<svg id="_Слой_2" data-name="Слой 2" xmlns="http://www.w3.org/2000/svg" viewBox="0 0 70.71 70.7">
  <g id="Icons">
    <g>
      <path d="M63.7,61.3c-2.28,2.62-6.25,4.4-10.67,4.4H17.68c-4.42,0-8.39-1.78-10.67-4.4h56.7M70.71,56.3H0c0,7.96,7.91,14.4,17.68,14.4h35.36c9.76,0,17.68-6.45,17.68-14.4h0Z"/>
      <path d="M37.59,5v29.32h10.22s-12.06,11.43-12.06,11.43c-.11.1-.24.16-.4.16s-.29-.05-.4-.16l-12.06-11.43h10.22V5h4.48M38.16,0h-5.62c-2.45,0-4.43,1.98-4.43,4.43v24.89h-5.7c-4.35,0-6.46,5.31-3.31,8.3l12.41,11.76c1.08,1.02,2.46,1.53,3.84,1.53s2.76-.51,3.84-1.53l12.41-11.76c3.15-2.99,1.04-8.3-3.31-8.3h-5.7V4.43c0-2.45-1.98-4.43-4.43-4.43h0Z"/>
    </g>
  </g>
</svg>