<?xml version="1.0" encoding="UTF-8"?>
<svg id="_Слой_2" data-name="Слой 2" xmlns="http://www.w3.org/2000/svg" viewBox="0 0 70.71 70.71">
  <g id="Icons">
    <g>
      <path d="M35.36,5c16.74,0,30.36,13.62,30.36,30.36s-13.62,30.36-30.36,30.36S5,52.09,5,35.36,18.62,5,35.36,5M35.36,0C15.83,0,0,15.83,0,35.36s15.83,35.36,35.36,35.36,35.36-15.83,35.36-35.36S54.88,0,35.36,0h0Z"/>
      <path d="M51.57,55.18h-6.69l-18.5-29.83c-.68-1.1-1.18-2.05-1.5-2.85h-.15c.15,1.05.22,3.01.22,5.9v26.78h-5.82V14.71h7.09l17.95,29.26c.85,1.39,1.42,2.36,1.7,2.9h.12c-.18-1.25-.27-3.19-.27-5.8V14.71h5.84v40.47Z"/>
    </g>
  </g>
</svg>