<svg xmlns="http://www.w3.org/2000/svg" viewBox="0.162181 0 70.47 70.51">
  <path d="M70.4,64.48l-9.05-18.9c.55-.8.88-1.77.88-2.82,0-2.76-2.24-5-5-5s-5,2.24-5,5c0,1.05.33,2.02.88,2.82l-5.76,12.02-8.74-46.08c1.06-.92,1.74-2.25,1.74-3.76,0-2.76-2.24-5-5-5s-5,2.24-5,5c0,1.51.69,2.85,1.75,3.77l-8.13,43.24-6.8-23.55c.86-.9,1.4-2.11,1.4-3.46,0-2.76-2.24-5-5-5s-5,2.24-5,5c0,1.34.54,2.56,1.4,3.46L.26,64.86c-.38,1.33.38,2.71,1.71,3.1.23.07.46.1.69.1,1.08,0,2.08-.71,2.4-1.81l8.51-29.48,8.51,29.48c.32,1.11,1.37,1.86,2.52,1.8,1.16-.06,2.12-.9,2.34-2.04l8.42-44.79,8.49,44.79c.2,1.06,1.06,1.87,2.13,2.01,1.07.14,2.11-.42,2.58-1.4l8.66-18.09,8.66,18.09c.6,1.24,2.09,1.77,3.33,1.18,1.25-.6,1.77-2.09,1.18-3.33Z" fill="#000000"/>
</svg>