<?xml version="1.0" encoding="UTF-8"?>
<svg id="_Слой_2" data-name="Слой 2" xmlns="http://www.w3.org/2000/svg" viewBox="0 0 55 66.52">
  <defs>
    <style>
      .cls-1 {
        stroke: #000;
        stroke-miterlimit: 10;
      }
    </style>
  </defs>
  <g id="Icons">
    <g>
      <path class="cls-1" d="M40.86,11.87c.03-.06.04-.12.07-.19.02-.06.04-.12.05-.18.01-.06.02-.13.03-.19,0-.07.02-.13.02-.2,0-.06,0-.12,0-.18,0-.07-.01-.14-.02-.21,0-.02,0-.04,0-.06,0-.04-.03-.08-.04-.12-.02-.07-.04-.14-.07-.21-.02-.06-.05-.11-.08-.17-.03-.06-.06-.12-.1-.18-.03-.05-.07-.1-.11-.15-.04-.05-.08-.1-.13-.15-.05-.05-.09-.09-.14-.13-.03-.03-.06-.06-.1-.09L28.69.89c-.89-.66-2.14-.47-2.8.41-.66.89-.47,2.14.41,2.8l2.98,2.22c-.93-.06-1.86-.08-2.81-.05C13.02,6.78,1.02,18.78.52,32.24c-.16,4.21.66,8.22,2.24,11.83.48,1.1,1.94,1.34,2.79.5l.21-.21c.62-.62.82-1.5.51-2.25-1.46-3.5-2.09-7.43-1.61-11.54,1.2-10.5,9.65-18.94,20.15-20.15,2.3-.26,4.54-.17,6.68.2l-5.74,1.2c-1.08.23-1.77,1.29-1.55,2.37.2.94,1.03,1.59,1.96,1.59.14,0,.27-.01.41-.04l12.89-2.7s.01,0,.02,0c.04,0,.08-.03.12-.04.1-.03.2-.06.29-.1.04-.02.09-.05.13-.07.08-.05.17-.1.24-.16.04-.03.08-.07.12-.1.08-.07.14-.14.21-.22.02-.02.05-.04.06-.07.01-.02.02-.03.03-.05.04-.06.08-.12.11-.18.03-.05.06-.11.09-.16Z"/>
      <path class="cls-1" d="M52.24,22.45c-.48-1.1-1.94-1.34-2.79-.5l-.21.21c-.62.62-.82,1.5-.51,2.25,1.46,3.5,2.09,7.43,1.61,11.54-1.2,10.5-9.65,18.94-20.15,20.15-2.3.26-4.54.17-6.68-.2l5.74-1.2c1.08-.23,1.77-1.29,1.55-2.37s-1.28-1.77-2.37-1.55l-12.89,2.7s-.08.03-.13.04c-.06.02-.13.04-.19.06-.06.02-.12.05-.18.09-.05.03-.11.06-.16.09-.06.04-.11.08-.17.12-.05.04-.09.07-.14.12-.05.05-.1.11-.15.16-.03.03-.06.06-.08.09-.01.02-.02.03-.03.05-.04.06-.08.12-.11.18-.03.05-.06.11-.09.16-.03.06-.04.12-.07.19-.02.06-.04.12-.05.18-.01.06-.02.13-.03.19,0,.07-.02.13-.02.2,0,.06,0,.12,0,.18,0,.07.01.14.02.21,0,.02,0,.04,0,.06.01.05.03.1.04.14.01.05.03.1.04.15.03.08.06.15.1.22.02.04.03.07.06.11.06.11.14.21.22.3,0,0,.01.01.02.02.08.09.17.16.26.23,0,0,.02.02.02.02l11.53,8.58c.36.27.78.4,1.19.4.61,0,1.21-.28,1.61-.81.66-.89.47-2.14-.41-2.8l-2.98-2.22c.93.06,1.86.08,2.81.05,13.46-.5,25.46-12.5,25.96-25.96.16-4.21-.66-8.22-2.24-11.83Z"/>
    </g>
  </g>
</svg>