<svg xmlns="http://www.w3.org/2000/svg" viewBox="2.49 2.5 70.75 70.75">
  <path d="M41.39,7.5c.22,0,.4.18.4.4v5.95c0,2.42,1.45,4.59,3.72,5.54.74.31,1.51.46,2.31.46,1.6,0,3.1-.62,4.22-1.75l4.2-4.2s.12-.12.28-.12.25.09.28.12l5,5c.16.16.16.41,0,.56l-4.2,4.2c-1.72,1.72-2.23,4.29-1.29,6.56.94,2.25,3.11,3.71,5.54,3.71h5.94c.22,0,.4.18.4.4v7.08c0,.22-.18.4-.4.4h-5.95c-2.42,0-4.59,1.45-5.54,3.72-.94,2.25-.43,4.82,1.29,6.54l4.2,4.2c.16.16.16.41,0,.56l-5,5s-.12.12-.28.12-.25-.09-.28-.12l-4.2-4.2c-1.13-1.13-2.63-1.75-4.24-1.75-.8,0-1.58.16-2.32.47-2.25.94-3.71,3.11-3.71,5.54v5.94c0,.22-.18.4-.4.4h-7.08c-.22,0-.4-.18-.4-.4v-5.94c0-2.43-1.45-4.6-3.66-5.52h-.03s-.02-.02-.02-.02c-.74-.31-1.52-.46-2.31-.46-1.6,0-3.11.62-4.24,1.75l-4.2,4.2s-.12.12-.28.12-.25-.09-.28-.12l-5-5c-.16-.16-.16-.41,0-.56l4.2-4.2c1.72-1.72,2.22-4.28,1.28-6.56-.93-2.25-3.1-3.7-5.53-3.7h-5.95c-.22,0-.4-.18-.4-.4v-7.08c0-.22.18-.4.4-.4h5.94c2.43,0,4.6-1.45,5.54-3.72.94-2.26.43-4.83-1.29-6.55l-4.2-4.2c-.16-.16-.16-.41,0-.56l5-5s.12-.12.28-.12.25.09.28.12l4.2,4.2c1.13,1.13,2.63,1.75,4.22,1.75.8,0,1.57-.16,2.34-.47,2.25-.93,3.7-3.1,3.7-5.53v-5.95c0-.22.18-.4.4-.4h7.08M37.86,55.36c9.65,0,17.5-7.85,17.5-17.5s-7.85-17.5-17.5-17.5-17.5,7.85-17.5,17.5,7.85,17.5,17.5,17.5M41.39,2.5h-7.08c-2.98,0-5.4,2.42-5.4,5.4v5.95c0,.4-.25.75-.62.91-.01,0-.02,0-.03.01-.13.05-.26.08-.39.08-.25,0-.5-.1-.69-.28l-4.2-4.2c-1.05-1.05-2.44-1.58-3.82-1.58s-2.76.53-3.82,1.58l-5,5c-2.11,2.11-2.11,5.53,0,7.63l4.2,4.2c.29.29.37.72.21,1.09,0,0,0,0,0,.01-.16.37-.51.62-.92.62h-5.94c-2.98,0-5.4,2.42-5.4,5.4v7.08c0,2.98,2.42,5.4,5.4,5.4h5.95c.4,0,.75.25.91.62,0,.01,0,.02.01.03.15.37.08.79-.21,1.08l-4.2,4.2c-2.11,2.11-2.11,5.53,0,7.63l5,5c1.05,1.05,2.44,1.58,3.82,1.58s2.76-.53,3.82-1.58l4.2-4.2c.19-.19.44-.29.7-.29.13,0,.27.03.39.08,0,0,0,0,.01,0,.37.16.62.51.62.92v5.94c0,2.98,2.42,5.4,5.4,5.4h7.08c2.98,0,5.4-2.42,5.4-5.4v-5.94c0-.41.25-.76.62-.92,0,0,0,0,.01,0,.13-.05.26-.08.39-.08.26,0,.51.1.7.29l4.2,4.2c1.05,1.05,2.44,1.58,3.82,1.58s2.76-.53,3.82-1.58l5-5c2.11-2.11,2.11-5.53,0-7.63l-4.2-4.2c-.28-.28-.36-.71-.21-1.08,0-.01,0-.02.01-.03.15-.37.51-.62.91-.62h5.95c2.98,0,5.4-2.42,5.4-5.4v-7.08c0-2.98-2.42-5.4-5.4-5.4h-5.94c-.41,0-.76-.25-.92-.62,0,0,0,0,0-.01-.16-.38-.08-.81.21-1.09l4.2-4.2c2.11-2.11,2.11-5.53,0-7.63l-5-5c-1.05-1.05-2.44-1.58-3.82-1.58s-2.76.53-3.82,1.58l-4.2,4.2c-.19.19-.44.28-.69.28-.13,0-.26-.03-.39-.08-.01,0-.02,0-.03-.01-.37-.15-.62-.51-.62-.91v-5.95c0-2.98-2.42-5.4-5.4-5.4h0ZM37.86,50.36c-6.9,0-12.5-5.6-12.5-12.5s5.6-12.5,12.5-12.5,12.5,5.6,12.5,12.5-5.6,12.5-12.5,12.5h0Z" fill="#000000"/>
</svg>