<?xml version="1.0" encoding="UTF-8"?>
<svg id="_Слой_2" data-name="Слой 2" xmlns="http://www.w3.org/2000/svg" viewBox="0 0 70.71 70.71">
  <g id="Icons">
    <g>
      <path d="M45.96,42.43l-8.11-8.11V10.36c0-1.38-1.12-2.5-2.5-2.5s-2.5,1.12-2.5,2.5v25c0,.16.02.33.05.49.01.07.04.14.06.22.02.08.04.17.08.25.04.09.08.16.13.25.03.06.06.13.1.18.09.14.2.27.31.38l8.84,8.84c.49.49,1.13.73,1.77.73s1.28-.24,1.77-.73c.98-.98.98-2.56,0-3.54Z"/>
      <path d="M53.03,0v35.36c0,9.76-7.91,17.68-17.68,17.68s-17.68-7.91-17.68-17.68V0H0v35.36c0,19.53,15.83,35.36,35.36,35.36s35.36-15.83,35.36-35.36V0h-17.68ZM65.71,5v11.86h-7.68V5h7.68ZM5,5h7.68v11.86h-7.68V5ZM35.36,65.71c-16.74,0-30.36-13.62-30.36-30.36v-13.5h7.68v13.5c0,12.5,10.17,22.68,22.68,22.68s22.68-10.17,22.68-22.68v-13.5h7.68v13.5c0,16.74-13.62,30.36-30.36,30.36Z"/>
    </g>
  </g>
</svg>