<?xml version="1.0" encoding="UTF-8"?>
<svg id="_Слой_2" data-name="Слой 2" xmlns="http://www.w3.org/2000/svg" viewBox="0 0 70.71 70.71">
  <g id="Icons">
    <g>
      <path d="M37.18,32.39c.68,0,1.32.11,1.83.33l.95.41v.54h0s0,.14,0,.14c0,.99-1.12,2.85-3.61,3.9-.94.4-1.92.6-2.84.6-1.48,0-2.47-.53-2.69-1.06-.35-.83.73-3.09,3.54-4.28.93-.39,1.91-.6,2.82-.6M44.96,0h-4v28.12c-1.12-.48-2.42-.73-3.78-.73-1.54,0-3.17.32-4.77.99-5.05,2.13-7.83,6.98-6.21,10.83,1.11,2.63,3.98,4.11,7.3,4.11,1.54,0,3.18-.32,4.78-1,4.08-1.72,6.68-5.21,6.67-8.52h0s0-.06,0-.09V0h0Z"/>
      <path d="M53.03,0v35.36c0,9.76-7.91,17.68-17.68,17.68s-17.68-7.91-17.68-17.68V0H0v35.36c0,19.53,15.83,35.36,35.36,35.36s35.36-15.83,35.36-35.36V0h-17.68ZM65.71,5v11.86h-7.68V5h7.68ZM5,5h7.68v11.86h-7.68V5ZM35.36,65.71c-16.74,0-30.36-13.62-30.36-30.36v-13.5h7.68v13.5c0,12.5,10.17,22.68,22.68,22.68s22.68-10.17,22.68-22.68v-13.5h7.68v13.5c0,16.74-13.62,30.36-30.36,30.36Z"/>
    </g>
  </g>
</svg>