<?xml version="1.0" encoding="UTF-8"?>
<svg id="_Слой_2" data-name="Слой 2" xmlns="http://www.w3.org/2000/svg" viewBox="0 0 70.73 70.71">
  <defs>
    <style>
      .cls-1 {
        stroke: #000;
        stroke-miterlimit: 10;
      }
    </style>
  </defs>
  <g id="Icons">
    <g>
      <path class="cls-1" d="M68.26,10.72h-8.22s-7.22-.01-7.22-.01v-3.25c0-3.84-3.11-6.96-6.96-6.96h-20.94c-3.84,0-6.96,3.11-6.96,6.96v3.25h-7.22s-8.28.01-8.28.01c-1.09,0-1.97.88-1.97,1.97s.88,1.97,1.97,1.97h8.28v43.6c0,6.6,5.35,11.95,11.95,11.95h25.4c6.6,0,11.95-5.35,11.95-11.95V14.66h8.22c1.09,0,1.97-.88,1.97-1.97s-.88-1.97-1.97-1.97ZM21.91,10.71v-3.25c0-1.66,1.35-3.01,3.01-3.01h20.94c1.66,0,3.01,1.35,3.01,3.01v3.25h0s-26.97.01-26.97.01h0ZM56.1,58.27c0,4.41-3.59,8-8,8h-25.4c-4.41,0-8-3.59-8-8V14.66h41.41v43.6Z"/>
      <path class="cls-1" d="M41.79,53.31c-1.09,0-1.97-.88-1.97-1.97v-22.1c0-1.09.88-1.97,1.97-1.97s1.97.88,1.97,1.97v22.1c0,1.09-.88,1.97-1.97,1.97Z"/>
      <path class="cls-1" d="M29,53.31c-1.09,0-1.97-.88-1.97-1.97v-22.1c0-1.09.88-1.97,1.97-1.97s1.97.88,1.97,1.97v22.1c0,1.09-.88,1.97-1.97,1.97Z"/>
    </g>
  </g>
</svg>