<?xml version="1.0" encoding="UTF-8"?>
<svg id="_Слой_2" data-name="Слой 2" xmlns="http://www.w3.org/2000/svg" viewBox="0 0 70.4 70.65">
  <g id="Icons">
    <g>
      <path d="M35.2,37.81c-1.38,0-2.5-1.12-2.5-2.5V2.5c0-1.38,1.12-2.5,2.5-2.5s2.5,1.12,2.5,2.5v32.81c0,1.38-1.12,2.5-2.5,2.5Z"/>
      <path d="M35.2,70.65C15.79,70.65,0,54.77,0,35.24,0,21.29,13.67,9.93,18.87,7.97c1.29-.49,2.73.16,3.22,1.45.49,1.29-.16,2.73-1.46,3.22-3.64,1.38-15.64,11.11-15.64,22.6,0,16.77,13.55,30.41,30.2,30.41s30.2-13.64,30.2-30.41c0-10.86-10.58-21.1-15.23-22.7-1.31-.45-2-1.87-1.55-3.18.45-1.3,1.87-2,3.18-1.55,6.31,2.17,18.6,13.82,18.6,27.43,0,19.52-15.79,35.41-35.2,35.41Z"/>
    </g>
  </g>
</svg>