<?xml version="1.0" encoding="UTF-8"?>
<svg id="_Слой_2" data-name="Слой 2" xmlns="http://www.w3.org/2000/svg" viewBox="0 0 70.71 70.71">
  <g id="Icons">
    <g>
      <g>
        <polygon points="70.71 20.71 70.71 0 50 0 70.71 20.71"/>
        <polygon points="20.71 0 0 0 0 20.71 20.71 0"/>
        <polygon points="0 50 0 70.71 20.71 70.71 0 50"/>
        <polygon points="50 70.71 70.71 70.71 70.71 50 50 70.71"/>
      </g>
      <path d="M35.36,15.36c11.03,0,20,8.97,20,20s-8.97,20-20,20-20-8.97-20-20,8.97-20,20-20M35.36,10.36c-13.81,0-25,11.19-25,25s11.19,25,25,25,25-11.19,25-25-11.19-25-25-25h0Z"/>
    </g>
  </g>
</svg>